<svg width="258" height="56" viewBox="0 0 258 56" fill="none" xmlns="http://www.w3.org/2000/svg">
<path d="M15.899 0.619102C8.48539 2.5059 3.06665 7.75355 0.684786 15.3302C0.119093 17.1286 0 18.1899 0 20.9316C0 25.9729 1.22071 29.6286 4.10872 33.5201C5.38897 35.2595 13.8744 42.6888 15.0951 43.131C16.7028 43.7206 18.8763 42.0991 18.8763 40.3303C18.8763 39.2689 17.7747 38.1192 12.5346 33.6675C7.68152 29.5107 6.1333 26.7689 5.83557 21.934C5.59738 17.217 6.93718 13.5908 10.242 10.2889C16.6731 3.80307 25.9326 4.27477 33.5248 11.4387L34.6264 12.4705L36.2044 11.026C38.2289 9.13917 40.1047 7.87148 42.6354 6.69223C44.3622 5.89624 44.9577 5.74883 47.0121 5.77831C58.5046 5.77831 65.8883 18.072 60.4696 28.1251C59.9635 29.0979 58.713 30.7194 57.7305 31.6923C54.4554 34.9942 38.7946 49.0862 37.8419 49.5874C32.84 52.2112 26.8258 47.5826 28.106 42.0991C28.4335 40.6546 28.7312 40.2713 31.7681 37.3527L35.1027 34.1687L36.5914 34.3456C39.6283 34.7288 40.4322 34.2571 46.9823 28.2135C48.858 26.5036 49.3344 25.8845 49.3344 25.2064C49.3344 24.322 48.59 23.5849 47.7266 23.5849C47.4587 23.5849 45.7318 24.9706 43.8859 26.6805C42.0101 28.3904 40.3131 29.776 40.1047 29.776C39.8665 29.776 39.5985 29.5402 39.5092 29.2748C39.3603 28.8916 40.1344 27.9776 42.6354 25.6486C45.2554 23.2017 45.97 22.3467 45.97 21.7571C45.97 20.8432 45.2852 20.0472 44.4813 20.0472C44.1836 20.0472 42.427 21.4328 40.581 23.1427C38.7351 24.8526 37.038 26.2383 36.8296 26.2383C36.5914 26.2383 36.3234 26.0024 36.2341 25.7371C36.0853 25.3538 36.8891 24.4399 39.3603 22.1109C42.9927 18.6911 43.4095 17.8656 41.9804 16.9517C40.9681 16.2736 40.581 16.5389 36.2044 20.6073C31.9765 24.5283 31.262 25.6192 31.262 28.184L31.2322 29.9529L27.9571 32.901C25.1287 35.4364 24.5034 36.1734 23.4911 38.1487C22.33 40.4187 22.3002 40.5072 22.3002 43.6027C22.3002 46.6392 22.33 46.8456 23.4018 48.9683C24.7714 51.71 26.7662 53.6263 29.5054 54.9235C32.9293 56.486 37.3357 56.3386 40.9085 54.5402C42.159 53.8916 61.6308 36.2619 63.4767 34.0803C65.1142 32.164 66.9006 28.4788 67.5557 25.7371C68.3298 22.5531 68.0618 17.4529 66.99 14.2984C65.1738 9.05072 61.3033 4.65803 56.3311 2.24057C53.1454 0.678066 50.4062 0 47.0121 0C43.2904 0 40.1344 1.06132 36.4723 3.50826C35.4898 4.18633 34.5966 4.71699 34.4775 4.71699C34.3584 4.71699 33.8523 4.3927 33.3461 4.00944C31.7384 2.80071 28.1358 1.14977 25.7837 0.560143C22.8361 -0.176888 18.8763 -0.147408 15.899 0.619102Z" fill="#0AAF60"/>
<path d="M92.496 41V19.76H84.144V15.8H105.528V19.76H97.176V41H92.496ZM119.433 41V37.112L119.181 36.284V29.48C119.181 28.16 118.785 27.14 117.993 26.42C117.201 25.676 116.001 25.304 114.393 25.304C113.313 25.304 112.245 25.472 111.189 25.808C110.157 26.144 109.281 26.612 108.561 27.212L106.797 23.936C107.829 23.144 109.053 22.556 110.469 22.172C111.909 21.764 113.397 21.56 114.933 21.56C117.717 21.56 119.865 22.232 121.377 23.576C122.913 24.896 123.681 26.948 123.681 29.732V41H119.433ZM113.385 41.252C111.945 41.252 110.685 41.012 109.605 40.532C108.525 40.028 107.685 39.344 107.085 38.48C106.509 37.592 106.221 36.596 106.221 35.492C106.221 34.412 106.473 33.44 106.977 32.576C107.505 31.712 108.357 31.028 109.533 30.524C110.709 30.02 112.269 29.768 114.213 29.768H119.793V32.756H114.537C113.001 32.756 111.969 33.008 111.441 33.512C110.913 33.992 110.649 34.592 110.649 35.312C110.649 36.128 110.973 36.776 111.621 37.256C112.269 37.736 113.169 37.976 114.321 37.976C115.425 37.976 116.409 37.724 117.273 37.22C118.161 36.716 118.797 35.972 119.181 34.988L119.937 37.688C119.505 38.816 118.725 39.692 117.597 40.316C116.493 40.94 115.089 41.252 113.385 41.252ZM140.112 41.252C138.552 41.252 137.124 40.892 135.828 40.172C134.556 39.452 133.536 38.372 132.768 36.932C132.024 35.468 131.652 33.62 131.652 31.388C131.652 29.132 132.012 27.284 132.732 25.844C133.476 24.404 134.484 23.336 135.756 22.64C137.028 21.92 138.48 21.56 140.112 21.56C142.008 21.56 143.676 21.968 145.116 22.784C146.58 23.6 147.732 24.74 148.572 26.204C149.436 27.668 149.868 29.396 149.868 31.388C149.868 33.38 149.436 35.12 148.572 36.608C147.732 38.072 146.58 39.212 145.116 40.028C143.676 40.844 142.008 41.252 140.112 41.252ZM129.456 47.984V21.776H133.74V26.312L133.596 31.424L133.956 36.536V47.984H129.456ZM139.608 37.4C140.688 37.4 141.648 37.16 142.488 36.68C143.352 36.2 144.036 35.504 144.54 34.592C145.044 33.68 145.296 32.612 145.296 31.388C145.296 30.14 145.044 29.072 144.54 28.184C144.036 27.272 143.352 26.576 142.488 26.096C141.648 25.616 140.688 25.376 139.608 25.376C138.528 25.376 137.556 25.616 136.692 26.096C135.828 26.576 135.144 27.272 134.64 28.184C134.136 29.072 133.884 30.14 133.884 31.388C133.884 32.612 134.136 33.68 134.64 34.592C135.144 35.504 135.828 36.2 136.692 36.68C137.556 37.16 138.528 37.4 139.608 37.4ZM154.568 41V15.8H158.42L169.436 34.196H167.42L178.256 15.8H182.108L182.144 41H177.716L177.68 22.748H178.616L169.4 38.12H167.312L157.952 22.748H159.032V41H154.568ZM197.554 41.252C195.418 41.252 193.546 40.832 191.938 39.992C190.354 39.128 189.118 37.952 188.23 36.464C187.366 34.976 186.934 33.284 186.934 31.388C186.934 29.468 187.354 27.776 188.194 26.312C189.058 24.824 190.234 23.66 191.722 22.82C193.234 21.98 194.95 21.56 196.87 21.56C198.742 21.56 200.41 21.968 201.874 22.784C203.338 23.6 204.49 24.752 205.33 26.24C206.17 27.728 206.59 29.48 206.59 31.496C206.59 31.688 206.578 31.904 206.554 32.144C206.554 32.384 206.542 32.612 206.518 32.828H190.498V29.84H204.142L202.378 30.776C202.402 29.672 202.174 28.7 201.694 27.86C201.214 27.02 200.554 26.36 199.714 25.88C198.898 25.4 197.95 25.16 196.87 25.16C195.766 25.16 194.794 25.4 193.954 25.88C193.138 26.36 192.49 27.032 192.01 27.896C191.554 28.736 191.326 29.732 191.326 30.884V31.604C191.326 32.756 191.59 33.776 192.118 34.664C192.646 35.552 193.39 36.236 194.35 36.716C195.31 37.196 196.414 37.436 197.662 37.436C198.742 37.436 199.714 37.268 200.578 36.932C201.442 36.596 202.21 36.068 202.882 35.348L205.294 38.12C204.43 39.128 203.338 39.908 202.018 40.46C200.722 40.988 199.234 41.252 197.554 41.252ZM221.821 21.56C223.357 21.56 224.725 21.86 225.925 22.46C227.149 23.06 228.109 23.984 228.805 25.232C229.501 26.456 229.849 28.04 229.849 29.984V41H225.349V30.56C225.349 28.856 224.941 27.584 224.125 26.744C223.333 25.904 222.217 25.484 220.777 25.484C219.721 25.484 218.785 25.7 217.969 26.132C217.153 26.564 216.517 27.212 216.061 28.076C215.629 28.916 215.413 29.984 215.413 31.28V41H210.913V21.776H215.197V26.96L214.441 25.376C215.113 24.152 216.085 23.216 217.357 22.568C218.653 21.896 220.141 21.56 221.821 21.56ZM243.693 41.252C242.061 41.252 240.621 40.952 239.373 40.352C238.125 39.728 237.153 38.792 236.457 37.544C235.761 36.272 235.413 34.676 235.413 32.756V21.776H239.913V32.144C239.913 33.872 240.297 35.168 241.065 36.032C241.857 36.872 242.973 37.292 244.413 37.292C245.469 37.292 246.381 37.076 247.149 36.644C247.941 36.212 248.553 35.564 248.985 34.7C249.441 33.836 249.669 32.768 249.669 31.496V21.776H254.169V41H249.885V35.816L250.641 37.4C249.993 38.648 249.045 39.608 247.797 40.28C246.549 40.928 245.181 41.252 243.693 41.252Z" fill="black"/>
</svg>
